<?xml version="1.0" encoding="UTF-8" standalone="no"?>
<!DOCTYPE svg PUBLIC "-//W3C//DTD SVG 1.1//EN" "http://www.w3.org/Graphics/SVG/1.1/DTD/svg11.dtd">
<svg width="100%" height="100%" viewBox="0 0 1080 1080" version="1.1" xmlns="http://www.w3.org/2000/svg" xmlns:xlink="http://www.w3.org/1999/xlink" xml:space="preserve" xmlns:serif="http://www.serif.com/" style="fill-rule:evenodd;clip-rule:evenodd;stroke-linejoin:round;stroke-miterlimit:2;">
    <g transform="matrix(1.2163,0,0,1.2163,-116.804,-116.804)">
        <path d="M224.265,670.501C207.606,630.286 198.411,586.208 198.411,540C198.411,351.472 351.472,198.411 540,198.411C728.528,198.411 881.589,351.472 881.589,540C881.589,728.528 728.528,881.589 540,881.589C493.87,881.589 449.864,872.425 409.704,855.82C419.513,846.051 427.745,834.782 433.998,822.403C466.981,834.804 502.704,841.589 540,841.589C706.451,841.589 841.589,706.451 841.589,540C841.589,373.549 706.451,238.411 540,238.411C373.549,238.411 238.411,373.549 238.411,540C238.411,578.153 245.512,614.662 258.462,648.274C245.875,653.949 234.351,661.479 224.265,670.501ZM540,308.268C563.139,308.268 581.925,327.054 581.925,350.193C581.925,373.333 563.139,392.119 540,392.119C516.861,392.119 498.075,373.333 498.075,350.193C498.075,327.054 516.861,308.268 540,308.268ZM616.806,464.489C606.39,465.493 597.895,473.268 595.976,483.555C591.562,507.185 586.674,540.119 588.299,563.489C591.54,610.085 626.515,731.811 626.515,731.811C629.546,742.425 623.39,753.503 612.776,756.534C602.162,759.566 591.084,753.41 588.053,742.796C588.053,742.796 559.734,628.077 551.664,603.289C550.099,598.483 544.178,594.022 539.632,594.064C534.826,594.109 528.385,598.586 526.684,603.687C518.509,628.211 490.584,741.206 490.584,741.206C487.552,751.82 476.474,757.976 465.86,754.945C455.246,751.913 449.09,740.835 452.122,730.221C452.122,730.221 487.097,608.495 490.337,561.899C491.924,539.076 487.299,507.129 482.971,483.636C481.069,473.303 472.535,465.49 462.074,464.506C421.657,460.634 385.073,455.872 385.073,455.872C374.128,454.441 366.404,444.393 367.835,433.448C369.266,422.502 379.313,414.778 390.259,416.209C390.259,416.209 490.652,429.393 540,429.394C589.132,429.394 686.193,416.225 686.193,416.225C697.132,414.748 707.213,422.429 708.69,433.368C710.168,444.307 702.486,454.388 691.547,455.865C691.547,455.865 656.202,460.618 616.806,464.489Z" style="fill:white;"/>
    </g>
    <g transform="matrix(0.995969,0,0,1.03706,3.18915,41.2161)">
        <path d="M263.48,609.506C341.661,609.506 405.134,670.464 405.134,745.547C405.134,820.63 341.661,881.589 263.48,881.589C185.299,881.589 121.826,820.63 121.826,745.547C121.826,670.464 185.299,609.506 263.48,609.506ZM291.384,709.913C291.384,709.913 316.699,721.059 316.756,745.569C316.817,771.314 293.513,780.383 293.513,780.383C288.414,782.327 285.917,787.88 287.94,792.778C289.964,797.675 295.746,800.073 300.846,798.13C300.846,798.13 336.729,784.644 336.637,745.526C336.552,709.415 299.823,692.626 299.823,692.626C294.856,690.39 288.932,692.447 286.603,697.218C284.274,701.988 286.417,707.677 291.384,709.913ZM218.634,789.678L256.778,826.376C258.962,828.477 262.25,829.108 265.107,827.972C267.964,826.837 269.827,824.161 269.827,821.191L269.827,669.903C269.827,666.934 267.964,664.257 265.107,663.122C262.25,661.987 258.962,662.617 256.778,664.718L218.634,701.416L175.147,701.416C162.466,701.416 152.171,711.303 152.171,723.482L152.171,767.613C152.171,779.791 162.466,789.678 175.147,789.678L218.634,789.678ZM314.562,677.651C314.562,677.651 356.624,698.97 356.734,745.569C356.851,794.997 317.784,812.64 317.784,812.64C312.795,814.83 310.595,820.499 312.876,825.291C315.157,830.083 321.059,832.195 326.049,830.005C326.049,830.005 376.763,808.241 376.615,745.526C376.477,687.319 323.822,660.756 323.822,660.756C318.967,658.302 312.951,660.095 310.396,664.757C307.84,669.42 309.707,675.197 314.562,677.651Z" style="fill:white;"/>
    </g>
</svg>
